<svg xmlns="http://www.w3.org/2000/svg" viewBox="0 0 434.13 40.97"><defs><style>.cls-1{fill:#fff;}</style></defs><title>Asset 1</title><g id="Layer_2" data-name="Layer 2"><g id="Layer_1-2" data-name="Layer 1"><path d="M51.54,10H44V6.07H63.7V10H56.18V32.22H51.54Z"/><path d="M66.62,4h4.6v7.28l-.16,3.8a9,9,0,0,1,6.28-3c4.2,0,6,2.84,6,7.8V32.22h-4.6V20.51c0-3.24-.92-4.44-3.08-4.44-1.72,0-2.84.84-4.48,2.44V32.22h-4.6Z"/><path d="M94.7,12.11c5.32,0,8.12,3.84,8.12,9.32a9.87,9.87,0,0,1-.2,2.16H90.14c.4,3.56,2.64,5.56,5.8,5.56a8.21,8.21,0,0,0,4.56-1.44l1.56,2.88a12.39,12.39,0,0,1-6.72,2.12c-5.44,0-9.68-3.8-9.68-10.28S90.1,12.11,94.7,12.11Zm4.12,8.56c0-3.12-1.32-5-4-5-2.32,0-4.32,1.72-4.72,5Z"/><path d="M117.78,6.07H133.5V10H122.42v6.68h9.4v3.92h-9.4V28.3H133.9v3.92H117.78Z"/><path d="M137.78,4h4.6V27.42c0,1.12.52,1.52,1,1.52a2.75,2.75,0,0,0,.72-.08l.6,3.44a6.28,6.28,0,0,1-2.44.4c-3.28,0-4.48-2.12-4.48-5.52Z"/><path d="M147.62,12.59h3.8l.32,2.68h.16c1.64-1.76,3.56-3.16,6-3.16a5.34,5.34,0,0,1,5.44,3.52c1.88-2,3.84-3.52,6.32-3.52,4.16,0,6.08,2.84,6.08,7.8V32.22H171.1V20.51c0-3.24-1-4.44-3-4.44-1.24,0-2.6.8-4.12,2.44V32.22h-4.6V20.51c0-3.24-1-4.44-3-4.44-1.2,0-2.6.8-4.12,2.44V32.22h-4.6Z"/><path d="M188.1,12.11c5.32,0,8.12,3.84,8.12,9.32a9.87,9.87,0,0,1-.2,2.16H183.54c.4,3.56,2.64,5.56,5.8,5.56a8.21,8.21,0,0,0,4.56-1.44l1.56,2.88a12.39,12.39,0,0,1-6.72,2.12c-5.44,0-9.68-3.8-9.68-10.28S183.5,12.11,188.1,12.11Zm4.12,8.56c0-3.12-1.32-5-4-5-2.32,0-4.32,1.72-4.72,5Z"/><path d="M198.62,12.59h3.8l.32,2.64h.16c1.76-1.72,3.76-3.12,6.44-3.12,4.2,0,6,2.84,6,7.8V32.22h-4.6V20.51c0-3.24-.92-4.44-3.08-4.44-1.72,0-2.84.84-4.48,2.44V32.22h-4.6Z"/><path d="M226.14,12.11a7.25,7.25,0,0,1,5.16,2.16l-.16-3.16V4h4.6V32.22h-3.8l-.32-2.12h-.16a8.18,8.18,0,0,1-5.56,2.6c-4.92,0-8.08-3.8-8.08-10.28S221.86,12.11,226.14,12.11ZM227,28.9a5.3,5.3,0,0,0,4.12-2.2V17.55a5.86,5.86,0,0,0-4-1.64c-2.52,0-4.56,2.36-4.56,6.48S224.18,28.9,227,28.9Z"/><path d="M248.62,12.11c4.92,0,9.36,3.76,9.36,10.32s-4.44,10.28-9.36,10.28-9.32-3.76-9.32-10.28S243.74,12.11,248.62,12.11Zm0,16.84c2.88,0,4.64-2.6,4.64-6.52s-1.76-6.56-4.64-6.56-4.6,2.6-4.6,6.56S245.74,28.94,248.62,28.94Z"/><path d="M260.54,12.59h3.8l.32,3.48h.16c1.4-2.56,3.48-4,5.56-4a5,5,0,0,1,2.24.4l-.8,4a6.41,6.41,0,0,0-2-.32c-1.56,0-3.44,1.08-4.64,4v12h-4.6Z"/><path d="M286.5,7.63a5.42,5.42,0,0,0-2.16-.48c-1.6,0-2.48,1-2.48,3.32v2.12h3.84v3.64h-3.84v16h-4.6v-16h-2.64V12.79l2.64-.2v-2c0-4.08,1.88-7,6.52-7a9.94,9.94,0,0,1,3.6.68Z"/><path d="M299.7,6.07h15.72V10H304.34v6.68h9.4v3.92h-9.4V28.3h11.48v3.92H299.7Z"/><path d="M318.7,12.59h3.8l.32,2.64H323c1.76-1.72,3.76-3.12,6.44-3.12,4.2,0,6,2.84,6,7.8V32.22h-4.6V20.51c0-3.24-.92-4.44-3.08-4.44-1.72,0-2.84.84-4.48,2.44V32.22h-4.6Z"/><path d="M347.22,12.11a7.25,7.25,0,0,1,5.44,2.36h.12l.4-1.88h3.64V40h-4.6V33.54l.16-3.24a8.19,8.19,0,0,1-5.4,2.4c-4.92,0-8.08-3.8-8.08-10.28S342.94,12.11,347.22,12.11Zm.88,16.8a5.3,5.3,0,0,0,4.12-2.2V17.55a5.86,5.86,0,0,0-4-1.64c-2.52,0-4.56,2.36-4.56,6.48S345.26,28.9,348.1,28.9Z"/><path d="M360.34,12.59h4.6V24.31c0,3.24.92,4.44,3,4.44,1.72,0,2.88-.8,4.36-2.72V12.59h4.6V32.22h-3.76l-.36-2.88h-.12c-1.72,2-3.64,3.36-6.32,3.36-4.2,0-6-2.84-6-7.8Z"/><path d="M380.26,6.55a2.85,2.85,0,1,1,2.84,2.6A2.64,2.64,0,0,1,380.26,6.55Zm.52,6h4.6V32.22h-4.6Z"/><path d="M388.26,12.59h3.8l.32,3.48h.16c1.4-2.56,3.48-4,5.56-4a5,5,0,0,1,2.24.4l-.8,4a6.41,6.41,0,0,0-2-.32c-1.56,0-3.44,1.08-4.64,4v12h-4.6Z"/><path d="M410.54,12.11c5.32,0,8.12,3.84,8.12,9.32a9.87,9.87,0,0,1-.2,2.16H406c.4,3.56,2.64,5.56,5.8,5.56a8.21,8.21,0,0,0,4.56-1.44l1.56,2.88a12.39,12.39,0,0,1-6.72,2.12c-5.44,0-9.68-3.8-9.68-10.28S405.94,12.11,410.54,12.11Zm4.12,8.56c0-3.12-1.32-5-4-5-2.32,0-4.32,1.72-4.72,5Z"/><path d="M422.06,12.59h3.8l.32,3.48h.16c1.4-2.56,3.48-4,5.56-4a5,5,0,0,1,2.24.4l-.8,4a6.41,6.41,0,0,0-2-.32c-1.56,0-3.44,1.08-4.64,4v12h-4.6Z"/><rect x="5.98" y="5.98" width="29" height="29" transform="translate(21.83 49.42) rotate(-137.66)"/><rect class="cls-1" x="14.92" y="11.34" width="10.07" height="3.36" transform="translate(39.9 26.03) rotate(180)"/><rect class="cls-1" x="13.98" y="20.78" width="13" height="1.2"/><ellipse class="cls-1" cx="19.95" cy="14.7" rx="5.03" ry="3.36"/><rect class="cls-1" x="14.92" y="27.7" width="10.07" height="3.36"/><ellipse class="cls-1" cx="19.95" cy="27.7" rx="5.03" ry="3.36"/></g></g></svg>